<svg viewBox="0 0 818 535" fill="none" xmlns="http://www.w3.org/2000/svg">
    <circle cx="6" cy="210" r="6" fill="#E5E5E5" />
    <circle cx="6" cy="234" r="6" fill="#E5E5E5" />
    <circle cx="30" cy="210" r="6" fill="#E5E5E5" />
    <circle cx="30" cy="234" r="6" fill="#E5E5E5" />
    <circle cx="54" cy="210" r="6" fill="#E5E5E5" />
    <circle cx="54" cy="234" r="6" fill="#E5E5E5" />
    <circle cx="78" cy="210" r="6" fill="#E5E5E5" />
    <circle cx="78" cy="234" r="6" fill="#E5E5E5" />
    <circle cx="102" cy="210" r="6" fill="#E5E5E5" />
    <circle cx="102" cy="234" r="6" fill="#E5E5E5" />
    <circle cx="126" cy="210" r="6" fill="#E5E5E5" />
    <circle cx="126" cy="234" r="6" fill="#E5E5E5" />
    <circle cx="150" cy="210" r="6" fill="#E5E5E5" />
    <circle cx="150" cy="234" r="6" fill="#E5E5E5" />
    <circle cx="174" cy="210" r="6" fill="#E5E5E5" />
    <circle cx="174" cy="234" r="6" fill="#E5E5E5" />
    <circle cx="198" cy="210" r="6" fill="#E5E5E5" />
    <circle cx="198" cy="234" r="6" fill="#E5E5E5" />
    <circle cx="222" cy="210" r="6" fill="#E5E5E5" />
    <circle cx="222" cy="234" r="6" fill="#E5E5E5" />
    <circle cx="246" cy="210" r="6" fill="#E5E5E5" />
    <circle cx="246" cy="234" r="6" fill="#E5E5E5" />
    <circle cx="270" cy="210" r="6" fill="#E5E5E5" />
    <circle cx="270" cy="234" r="6" fill="#E5E5E5" />
    <circle cx="294" cy="210" r="6" fill="#E5E5E5" />
    <circle cx="294" cy="234" r="6" fill="#E5E5E5" />
    <circle cx="318" cy="210" r="6" fill="#E5E5E5" />
    <circle cx="318" cy="234" r="6" fill="#E5E5E5" />
    <circle cx="6" cy="258" r="6" fill="#E5E5E5" />
    <circle cx="6" cy="282" r="6" fill="#E5E5E5" />
    <circle cx="30" cy="258" r="6" fill="#E5E5E5" />
    <circle cx="30" cy="282" r="6" fill="#E5E5E5" />
    <circle cx="54" cy="258" r="6" fill="#E5E5E5" />
    <circle cx="54" cy="282" r="6" fill="#E5E5E5" />
    <circle cx="78" cy="258" r="6" fill="#E5E5E5" />
    <circle cx="78" cy="282" r="6" fill="#E5E5E5" />
    <circle cx="102" cy="258" r="6" fill="#E5E5E5" />
    <circle cx="102" cy="282" r="6" fill="#E5E5E5" />
    <circle cx="126" cy="258" r="6" fill="#E5E5E5" />
    <circle cx="126" cy="282" r="6" fill="#E5E5E5" />
    <circle cx="150" cy="258" r="6" fill="#E5E5E5" />
    <circle cx="150" cy="282" r="6" fill="#E5E5E5" />
    <circle cx="174" cy="258" r="6" fill="#E5E5E5" />
    <circle cx="174" cy="282" r="6" fill="#E5E5E5" />
    <circle cx="198" cy="258" r="6" fill="#E5E5E5" />
    <circle cx="198" cy="282" r="6" fill="#E5E5E5" />
    <circle cx="222" cy="258" r="6" fill="#E5E5E5" />
    <circle cx="222" cy="282" r="6" fill="#E5E5E5" />
    <circle cx="246" cy="258" r="6" fill="#E5E5E5" />
    <circle cx="246" cy="282" r="6" fill="#E5E5E5" />
    <circle cx="270" cy="258" r="6" fill="#E5E5E5" />
    <circle cx="270" cy="282" r="6" fill="#E5E5E5" />
    <circle cx="294" cy="258" r="6" fill="#E5E5E5" />
    <circle cx="294" cy="282" r="6" fill="#E5E5E5" />
    <circle cx="318" cy="258" r="6" fill="#E5E5E5" />
    <circle cx="318" cy="282" r="6" fill="#E5E5E5" />
    <circle cx="6" cy="306" r="6" fill="#E5E5E5" />
    <circle cx="6" cy="330" r="6" fill="#E5E5E5" />
    <circle cx="30" cy="306" r="6" fill="#E5E5E5" />
    <circle cx="30" cy="330" r="6" fill="#E5E5E5" />
    <circle cx="54" cy="306" r="6" fill="#E5E5E5" />
    <circle cx="54" cy="330" r="6" fill="#E5E5E5" />
    <circle cx="78" cy="306" r="6" fill="#E5E5E5" />
    <circle cx="78" cy="330" r="6" fill="#E5E5E5" />
    <circle cx="102" cy="306" r="6" fill="#E5E5E5" />
    <circle cx="102" cy="330" r="6" fill="#E5E5E5" />
    <circle cx="126" cy="306" r="6" fill="#E5E5E5" />
    <circle cx="126" cy="330" r="6" fill="#E5E5E5" />
    <circle cx="150" cy="306" r="6" fill="#E5E5E5" />
    <circle cx="150" cy="330" r="6" fill="#E5E5E5" />
    <circle cx="174" cy="306" r="6" fill="#E5E5E5" />
    <circle cx="174" cy="330" r="6" fill="#E5E5E5" />
    <circle cx="198" cy="306" r="6" fill="#E5E5E5" />
    <circle cx="198" cy="330" r="6" fill="#E5E5E5" />
    <circle cx="222" cy="306" r="6" fill="#E5E5E5" />
    <circle cx="222" cy="330" r="6" fill="#E5E5E5" />
    <circle cx="246" cy="306" r="6" fill="#E5E5E5" />
    <circle cx="246" cy="330" r="6" fill="#E5E5E5" />
    <circle cx="270" cy="306" r="6" fill="#E5E5E5" />
    <circle cx="270" cy="330" r="6" fill="#E5E5E5" />
    <circle cx="294" cy="306" r="6" fill="#E5E5E5" />
    <circle cx="294" cy="330" r="6" fill="#E5E5E5" />
    <circle cx="318" cy="306" r="6" fill="#E5E5E5" />
    <circle cx="318" cy="330" r="6" fill="#E5E5E5" />
    <circle cx="6" cy="354" r="6" fill="#E5E5E5" />
    <circle cx="6" cy="378" r="6" fill="#E5E5E5" />
    <circle cx="30" cy="354" r="6" fill="#E5E5E5" />
    <circle cx="30" cy="378" r="6" fill="#E5E5E5" />
    <circle cx="54" cy="354" r="6" fill="#E5E5E5" />
    <circle cx="54" cy="378" r="6" fill="#E5E5E5" />
    <circle cx="78" cy="354" r="6" fill="#E5E5E5" />
    <circle cx="78" cy="378" r="6" fill="#E5E5E5" />
    <circle cx="102" cy="354" r="6" fill="#E5E5E5" />
    <circle cx="102" cy="378" r="6" fill="#E5E5E5" />
    <circle cx="126" cy="354" r="6" fill="#E5E5E5" />
    <circle cx="126" cy="378" r="6" fill="#E5E5E5" />
    <circle cx="150" cy="354" r="6" fill="#E5E5E5" />
    <circle cx="150" cy="378" r="6" fill="#E5E5E5" />
    <circle cx="174" cy="354" r="6" fill="#E5E5E5" />
    <circle cx="174" cy="378" r="6" fill="#E5E5E5" />
    <circle cx="198" cy="354" r="6" fill="#E5E5E5" />
    <circle cx="198" cy="378" r="6" fill="#E5E5E5" />
    <circle cx="222" cy="354" r="6" fill="#E5E5E5" />
    <circle cx="222" cy="378" r="6" fill="#E5E5E5" />
    <circle cx="246" cy="354" r="6" fill="#E5E5E5" />
    <circle cx="246" cy="378" r="6" fill="#E5E5E5" />
    <circle cx="270" cy="354" r="6" fill="#E5E5E5" />
    <circle cx="270" cy="378" r="6" fill="#E5E5E5" />
    <circle cx="294" cy="354" r="6" fill="#E5E5E5" />
    <circle cx="294" cy="378" r="6" fill="#E5E5E5" />
    <circle cx="318" cy="354" r="6" fill="#E5E5E5" />
    <circle cx="318" cy="378" r="6" fill="#E5E5E5" />
    <circle cx="488" cy="318" r="6" transform="rotate(-90 488 318)" fill="#E5E5E5" />
    <circle cx="512" cy="318" r="6" transform="rotate(-90 512 318)" fill="#E5E5E5" />
    <circle cx="488" cy="294" r="6" transform="rotate(-90 488 294)" fill="#E5E5E5" />
    <circle cx="512" cy="294" r="6" transform="rotate(-90 512 294)" fill="#E5E5E5" />
    <circle cx="488" cy="270" r="6" transform="rotate(-90 488 270)" fill="#E5E5E5" />
    <circle cx="512" cy="270" r="6" transform="rotate(-90 512 270)" fill="#E5E5E5" />
    <circle cx="488" cy="246" r="6" transform="rotate(-90 488 246)" fill="#E5E5E5" />
    <circle cx="512" cy="246" r="6" transform="rotate(-90 512 246)" fill="#E5E5E5" />
    <circle cx="488" cy="222" r="6" transform="rotate(-90 488 222)" fill="#E5E5E5" />
    <circle cx="512" cy="222" r="6" transform="rotate(-90 512 222)" fill="#E5E5E5" />
    <circle cx="488" cy="198" r="6" transform="rotate(-90 488 198)" fill="#E5E5E5" />
    <circle cx="512" cy="198" r="6" transform="rotate(-90 512 198)" fill="#E5E5E5" />
    <circle cx="488" cy="174" r="6" transform="rotate(-90 488 174)" fill="#E5E5E5" />
    <circle cx="512" cy="174" r="6" transform="rotate(-90 512 174)" fill="#E5E5E5" />
    <circle cx="488" cy="150" r="6" transform="rotate(-90 488 150)" fill="#E5E5E5" />
    <circle cx="512" cy="150" r="6" transform="rotate(-90 512 150)" fill="#E5E5E5" />
    <circle cx="488" cy="126" r="6" transform="rotate(-90 488 126)" fill="#E5E5E5" />
    <circle cx="512" cy="126" r="6" transform="rotate(-90 512 126)" fill="#E5E5E5" />
    <circle cx="488" cy="102" r="6" transform="rotate(-90 488 102)" fill="#E5E5E5" />
    <circle cx="512" cy="102" r="6" transform="rotate(-90 512 102)" fill="#E5E5E5" />
    <circle cx="488" cy="78" r="6" transform="rotate(-90 488 78)" fill="#E5E5E5" />
    <circle cx="512" cy="78" r="6" transform="rotate(-90 512 78)" fill="#E5E5E5" />
    <circle cx="488" cy="54" r="6" transform="rotate(-90 488 54)" fill="#E5E5E5" />
    <circle cx="512" cy="54" r="6" transform="rotate(-90 512 54)" fill="#E5E5E5" />
    <circle cx="488" cy="30" r="6" transform="rotate(-90 488 30)" fill="#E5E5E5" />
    <circle cx="512" cy="30" r="6" transform="rotate(-90 512 30)" fill="#E5E5E5" />
    <circle cx="488" cy="6" r="6" transform="rotate(-90 488 6)" fill="#E5E5E5" />
    <circle cx="512" cy="6" r="6" transform="rotate(-90 512 6)" fill="#E5E5E5" />
    <circle cx="536" cy="318" r="6" transform="rotate(-90 536 318)" fill="#E5E5E5" />
    <circle cx="560" cy="318" r="6" transform="rotate(-90 560 318)" fill="#E5E5E5" />
    <circle cx="536" cy="294" r="6" transform="rotate(-90 536 294)" fill="#E5E5E5" />
    <circle cx="560" cy="294" r="6" transform="rotate(-90 560 294)" fill="#E5E5E5" />
    <circle cx="536" cy="270" r="6" transform="rotate(-90 536 270)" fill="#E5E5E5" />
    <circle cx="560" cy="270" r="6" transform="rotate(-90 560 270)" fill="#E5E5E5" />
    <circle cx="536" cy="246" r="6" transform="rotate(-90 536 246)" fill="#E5E5E5" />
    <circle cx="560" cy="246" r="6" transform="rotate(-90 560 246)" fill="#E5E5E5" />
    <circle cx="536" cy="222" r="6" transform="rotate(-90 536 222)" fill="#E5E5E5" />
    <circle cx="560" cy="222" r="6" transform="rotate(-90 560 222)" fill="#E5E5E5" />
    <circle cx="536" cy="198" r="6" transform="rotate(-90 536 198)" fill="#E5E5E5" />
    <circle cx="560" cy="198" r="6" transform="rotate(-90 560 198)" fill="#E5E5E5" />
    <circle cx="536" cy="174" r="6" transform="rotate(-90 536 174)" fill="#E5E5E5" />
    <circle cx="560" cy="174" r="6" transform="rotate(-90 560 174)" fill="#E5E5E5" />
    <circle cx="536" cy="150" r="6" transform="rotate(-90 536 150)" fill="#E5E5E5" />
    <circle cx="560" cy="150" r="6" transform="rotate(-90 560 150)" fill="#E5E5E5" />
    <circle cx="536" cy="126" r="6" transform="rotate(-90 536 126)" fill="#E5E5E5" />
    <circle cx="560" cy="126" r="6" transform="rotate(-90 560 126)" fill="#E5E5E5" />
    <circle cx="536" cy="102" r="6" transform="rotate(-90 536 102)" fill="#E5E5E5" />
    <circle cx="560" cy="102" r="6" transform="rotate(-90 560 102)" fill="#E5E5E5" />
    <circle cx="536" cy="78" r="6" transform="rotate(-90 536 78)" fill="#E5E5E5" />
    <circle cx="560" cy="78" r="6" transform="rotate(-90 560 78)" fill="#E5E5E5" />
    <circle cx="536" cy="54" r="6" transform="rotate(-90 536 54)" fill="#E5E5E5" />
    <circle cx="560" cy="54" r="6" transform="rotate(-90 560 54)" fill="#E5E5E5" />
    <circle cx="536" cy="30" r="6" transform="rotate(-90 536 30)" fill="#E5E5E5" />
    <circle cx="560" cy="30" r="6" transform="rotate(-90 560 30)" fill="#E5E5E5" />
    <circle cx="536" cy="6" r="6" transform="rotate(-90 536 6)" fill="#E5E5E5" />
    <circle cx="560" cy="6" r="6" transform="rotate(-90 560 6)" fill="#E5E5E5" />
    <circle cx="584" cy="318" r="6" transform="rotate(-90 584 318)" fill="#E5E5E5" />
    <circle cx="608" cy="318" r="6" transform="rotate(-90 608 318)" fill="#E5E5E5" />
    <circle cx="584" cy="294" r="6" transform="rotate(-90 584 294)" fill="#E5E5E5" />
    <circle cx="608" cy="294" r="6" transform="rotate(-90 608 294)" fill="#E5E5E5" />
    <circle cx="584" cy="270" r="6" transform="rotate(-90 584 270)" fill="#E5E5E5" />
    <circle cx="608" cy="270" r="6" transform="rotate(-90 608 270)" fill="#E5E5E5" />
    <circle cx="584" cy="246" r="6" transform="rotate(-90 584 246)" fill="#E5E5E5" />
    <circle cx="608" cy="246" r="6" transform="rotate(-90 608 246)" fill="#E5E5E5" />
    <circle cx="584" cy="222" r="6" transform="rotate(-90 584 222)" fill="#E5E5E5" />
    <circle cx="608" cy="222" r="6" transform="rotate(-90 608 222)" fill="#E5E5E5" />
    <circle cx="584" cy="198" r="6" transform="rotate(-90 584 198)" fill="#E5E5E5" />
    <circle cx="608" cy="198" r="6" transform="rotate(-90 608 198)" fill="#E5E5E5" />
    <circle cx="584" cy="174" r="6" transform="rotate(-90 584 174)" fill="#E5E5E5" />
    <circle cx="608" cy="174" r="6" transform="rotate(-90 608 174)" fill="#E5E5E5" />
    <circle cx="584" cy="150" r="6" transform="rotate(-90 584 150)" fill="#E5E5E5" />
    <circle cx="608" cy="150" r="6" transform="rotate(-90 608 150)" fill="#E5E5E5" />
    <circle cx="584" cy="126" r="6" transform="rotate(-90 584 126)" fill="#E5E5E5" />
    <circle cx="608" cy="126" r="6" transform="rotate(-90 608 126)" fill="#E5E5E5" />
    <circle cx="584" cy="102" r="6" transform="rotate(-90 584 102)" fill="#E5E5E5" />
    <circle cx="608" cy="102" r="6" transform="rotate(-90 608 102)" fill="#E5E5E5" />
    <circle cx="584" cy="78" r="6" transform="rotate(-90 584 78)" fill="#E5E5E5" />
    <circle cx="608" cy="78" r="6" transform="rotate(-90 608 78)" fill="#E5E5E5" />
    <circle cx="584" cy="54" r="6" transform="rotate(-90 584 54)" fill="#E5E5E5" />
    <circle cx="608" cy="54" r="6" transform="rotate(-90 608 54)" fill="#E5E5E5" />
    <circle cx="584" cy="30" r="6" transform="rotate(-90 584 30)" fill="#E5E5E5" />
    <circle cx="608" cy="30" r="6" transform="rotate(-90 608 30)" fill="#E5E5E5" />
    <circle cx="584" cy="6" r="6" transform="rotate(-90 584 6)" fill="#E5E5E5" />
    <circle cx="608" cy="6" r="6" transform="rotate(-90 608 6)" fill="#E5E5E5" />
    <circle cx="632" cy="318" r="6" transform="rotate(-90 632 318)" fill="#E5E5E5" />
    <circle cx="656" cy="318" r="6" transform="rotate(-90 656 318)" fill="#E5E5E5" />
    <circle cx="632" cy="294" r="6" transform="rotate(-90 632 294)" fill="#E5E5E5" />
    <circle cx="656" cy="294" r="6" transform="rotate(-90 656 294)" fill="#E5E5E5" />
    <circle cx="632" cy="270" r="6" transform="rotate(-90 632 270)" fill="#E5E5E5" />
    <circle cx="656" cy="270" r="6" transform="rotate(-90 656 270)" fill="#E5E5E5" />
    <circle cx="632" cy="246" r="6" transform="rotate(-90 632 246)" fill="#E5E5E5" />
    <circle cx="656" cy="246" r="6" transform="rotate(-90 656 246)" fill="#E5E5E5" />
    <circle cx="632" cy="222" r="6" transform="rotate(-90 632 222)" fill="#E5E5E5" />
    <circle cx="656" cy="222" r="6" transform="rotate(-90 656 222)" fill="#E5E5E5" />
    <circle cx="632" cy="198" r="6" transform="rotate(-90 632 198)" fill="#E5E5E5" />
    <circle cx="656" cy="198" r="6" transform="rotate(-90 656 198)" fill="#E5E5E5" />
    <circle cx="632" cy="174" r="6" transform="rotate(-90 632 174)" fill="#E5E5E5" />
    <circle cx="656" cy="174" r="6" transform="rotate(-90 656 174)" fill="#E5E5E5" />
    <circle cx="632" cy="150" r="6" transform="rotate(-90 632 150)" fill="#E5E5E5" />
    <circle cx="656" cy="150" r="6" transform="rotate(-90 656 150)" fill="#E5E5E5" />
    <circle cx="632" cy="126" r="6" transform="rotate(-90 632 126)" fill="#E5E5E5" />
    <circle cx="656" cy="126" r="6" transform="rotate(-90 656 126)" fill="#E5E5E5" />
    <circle cx="632" cy="102" r="6" transform="rotate(-90 632 102)" fill="#E5E5E5" />
    <circle cx="656" cy="102" r="6" transform="rotate(-90 656 102)" fill="#E5E5E5" />
    <circle cx="632" cy="78" r="6" transform="rotate(-90 632 78)" fill="#E5E5E5" />
    <circle cx="656" cy="78" r="6" transform="rotate(-90 656 78)" fill="#E5E5E5" />
    <circle cx="632" cy="54" r="6" transform="rotate(-90 632 54)" fill="#E5E5E5" />
    <circle cx="656" cy="54" r="6" transform="rotate(-90 656 54)" fill="#E5E5E5" />
    <circle cx="632" cy="30" r="6" transform="rotate(-90 632 30)" fill="#E5E5E5" />
    <circle cx="656" cy="30" r="6" transform="rotate(-90 656 30)" fill="#E5E5E5" />
    <circle cx="632" cy="6" r="6" transform="rotate(-90 632 6)" fill="#E5E5E5" />
    <circle cx="656" cy="6" r="6" transform="rotate(-90 656 6)" fill="#E5E5E5" />
    <circle cx="812" cy="522" r="6" transform="rotate(180 812 522)" fill="#E5E5E5" />
    <circle cx="812" cy="498" r="6" transform="rotate(180 812 498)" fill="#E5E5E5" />
    <circle cx="788" cy="522" r="6" transform="rotate(180 788 522)" fill="#E5E5E5" />
    <circle cx="788" cy="498" r="6" transform="rotate(180 788 498)" fill="#E5E5E5" />
    <circle cx="764" cy="522" r="6" transform="rotate(180 764 522)" fill="#E5E5E5" />
    <circle cx="764" cy="498" r="6" transform="rotate(180 764 498)" fill="#E5E5E5" />
    <circle cx="740" cy="522" r="6" transform="rotate(180 740 522)" fill="#E5E5E5" />
    <circle cx="740" cy="498" r="6" transform="rotate(180 740 498)" fill="#E5E5E5" />
    <circle cx="716" cy="522" r="6" transform="rotate(180 716 522)" fill="#E5E5E5" />
    <circle cx="716" cy="498" r="6" transform="rotate(180 716 498)" fill="#E5E5E5" />
    <circle cx="692" cy="522" r="6" transform="rotate(180 692 522)" fill="#E5E5E5" />
    <circle cx="692" cy="498" r="6" transform="rotate(180 692 498)" fill="#E5E5E5" />
    <circle cx="668" cy="522" r="6" transform="rotate(180 668 522)" fill="#E5E5E5" />
    <circle cx="668" cy="498" r="6" transform="rotate(180 668 498)" fill="#E5E5E5" />
    <circle cx="644" cy="522" r="6" transform="rotate(180 644 522)" fill="#E5E5E5" />
    <circle cx="644" cy="498" r="6" transform="rotate(180 644 498)" fill="#E5E5E5" />
    <circle cx="620" cy="522" r="6" transform="rotate(180 620 522)" fill="#E5E5E5" />
    <circle cx="620" cy="498" r="6" transform="rotate(180 620 498)" fill="#E5E5E5" />
    <circle cx="596" cy="522" r="6" transform="rotate(180 596 522)" fill="#E5E5E5" />
    <circle cx="596" cy="498" r="6" transform="rotate(180 596 498)" fill="#E5E5E5" />
    <circle cx="572" cy="522" r="6" transform="rotate(180 572 522)" fill="#E5E5E5" />
    <circle cx="572" cy="498" r="6" transform="rotate(180 572 498)" fill="#E5E5E5" />
    <circle cx="548" cy="522" r="6" transform="rotate(180 548 522)" fill="#E5E5E5" />
    <circle cx="548" cy="498" r="6" transform="rotate(180 548 498)" fill="#E5E5E5" />
    <circle cx="524" cy="522" r="6" transform="rotate(180 524 522)" fill="#E5E5E5" />
    <circle cx="524" cy="498" r="6" transform="rotate(180 524 498)" fill="#E5E5E5" />
    <circle cx="500" cy="522" r="6" transform="rotate(180 500 522)" fill="#E5E5E5" />
    <circle cx="500" cy="498" r="6" transform="rotate(180 500 498)" fill="#E5E5E5" />
    <circle cx="812" cy="474" r="6" transform="rotate(180 812 474)" fill="#E5E5E5" />
    <circle cx="812" cy="450" r="6" transform="rotate(180 812 450)" fill="#E5E5E5" />
    <circle cx="788" cy="474" r="6" transform="rotate(180 788 474)" fill="#E5E5E5" />
    <circle cx="788" cy="450" r="6" transform="rotate(180 788 450)" fill="#E5E5E5" />
    <circle cx="764" cy="474" r="6" transform="rotate(180 764 474)" fill="#E5E5E5" />
    <circle cx="764" cy="450" r="6" transform="rotate(180 764 450)" fill="#E5E5E5" />
    <circle cx="740" cy="474" r="6" transform="rotate(180 740 474)" fill="#E5E5E5" />
    <circle cx="740" cy="450" r="6" transform="rotate(180 740 450)" fill="#E5E5E5" />
    <circle cx="716" cy="474" r="6" transform="rotate(180 716 474)" fill="#E5E5E5" />
    <circle cx="716" cy="450" r="6" transform="rotate(180 716 450)" fill="#E5E5E5" />
    <circle cx="692" cy="474" r="6" transform="rotate(180 692 474)" fill="#E5E5E5" />
    <circle cx="692" cy="450" r="6" transform="rotate(180 692 450)" fill="#E5E5E5" />
    <circle cx="668" cy="474" r="6" transform="rotate(180 668 474)" fill="#E5E5E5" />
    <circle cx="668" cy="450" r="6" transform="rotate(180 668 450)" fill="#E5E5E5" />
    <circle cx="644" cy="474" r="6" transform="rotate(180 644 474)" fill="#E5E5E5" />
    <circle cx="644" cy="450" r="6" transform="rotate(180 644 450)" fill="#E5E5E5" />
    <circle cx="620" cy="474" r="6" transform="rotate(180 620 474)" fill="#E5E5E5" />
    <circle cx="620" cy="450" r="6" transform="rotate(180 620 450)" fill="#E5E5E5" />
    <circle cx="596" cy="474" r="6" transform="rotate(180 596 474)" fill="#E5E5E5" />
    <circle cx="596" cy="450" r="6" transform="rotate(180 596 450)" fill="#E5E5E5" />
    <circle cx="572" cy="474" r="6" transform="rotate(180 572 474)" fill="#E5E5E5" />
    <circle cx="572" cy="450" r="6" transform="rotate(180 572 450)" fill="#E5E5E5" />
    <circle cx="548" cy="474" r="6" transform="rotate(180 548 474)" fill="#E5E5E5" />
    <circle cx="548" cy="450" r="6" transform="rotate(180 548 450)" fill="#E5E5E5" />
    <circle cx="524" cy="474" r="6" transform="rotate(180 524 474)" fill="#E5E5E5" />
    <circle cx="524" cy="450" r="6" transform="rotate(180 524 450)" fill="#E5E5E5" />
    <circle cx="500" cy="474" r="6" transform="rotate(180 500 474)" fill="#E5E5E5" />
    <circle cx="500" cy="450" r="6" transform="rotate(180 500 450)" fill="#E5E5E5" />
    <circle cx="812" cy="426" r="6" transform="rotate(180 812 426)" fill="#E5E5E5" />
    <circle cx="812" cy="402" r="6" transform="rotate(180 812 402)" fill="#E5E5E5" />
    <circle cx="788" cy="426" r="6" transform="rotate(180 788 426)" fill="#E5E5E5" />
    <circle cx="788" cy="402" r="6" transform="rotate(180 788 402)" fill="#E5E5E5" />
    <circle cx="764" cy="426" r="6" transform="rotate(180 764 426)" fill="#E5E5E5" />
    <circle cx="764" cy="402" r="6" transform="rotate(180 764 402)" fill="#E5E5E5" />
    <circle cx="740" cy="426" r="6" transform="rotate(180 740 426)" fill="#E5E5E5" />
    <circle cx="740" cy="402" r="6" transform="rotate(180 740 402)" fill="#E5E5E5" />
    <circle cx="716" cy="426" r="6" transform="rotate(180 716 426)" fill="#E5E5E5" />
    <circle cx="716" cy="402" r="6" transform="rotate(180 716 402)" fill="#E5E5E5" />
    <circle cx="692" cy="426" r="6" transform="rotate(180 692 426)" fill="#E5E5E5" />
    <circle cx="692" cy="402" r="6" transform="rotate(180 692 402)" fill="#E5E5E5" />
    <circle cx="668" cy="426" r="6" transform="rotate(180 668 426)" fill="#E5E5E5" />
    <circle cx="668" cy="402" r="6" transform="rotate(180 668 402)" fill="#E5E5E5" />
    <circle cx="644" cy="426" r="6" transform="rotate(180 644 426)" fill="#E5E5E5" />
    <circle cx="644" cy="402" r="6" transform="rotate(180 644 402)" fill="#E5E5E5" />
    <circle cx="620" cy="426" r="6" transform="rotate(180 620 426)" fill="#E5E5E5" />
    <circle cx="620" cy="402" r="6" transform="rotate(180 620 402)" fill="#E5E5E5" />
    <circle cx="596" cy="426" r="6" transform="rotate(180 596 426)" fill="#E5E5E5" />
    <circle cx="596" cy="402" r="6" transform="rotate(180 596 402)" fill="#E5E5E5" />
    <circle cx="572" cy="426" r="6" transform="rotate(180 572 426)" fill="#E5E5E5" />
    <circle cx="572" cy="402" r="6" transform="rotate(180 572 402)" fill="#E5E5E5" />
    <circle cx="548" cy="426" r="6" transform="rotate(180 548 426)" fill="#E5E5E5" />
    <circle cx="548" cy="402" r="6" transform="rotate(180 548 402)" fill="#E5E5E5" />
    <circle cx="524" cy="426" r="6" transform="rotate(180 524 426)" fill="#E5E5E5" />
    <circle cx="524" cy="402" r="6" transform="rotate(180 524 402)" fill="#E5E5E5" />
    <circle cx="500" cy="426" r="6" transform="rotate(180 500 426)" fill="#E5E5E5" />
    <circle cx="500" cy="402" r="6" transform="rotate(180 500 402)" fill="#E5E5E5" />
    <circle cx="812" cy="378" r="6" transform="rotate(180 812 378)" fill="#E5E5E5" />
    <circle cx="812" cy="354" r="6" transform="rotate(180 812 354)" fill="#E5E5E5" />
    <circle cx="788" cy="378" r="6" transform="rotate(180 788 378)" fill="#E5E5E5" />
    <circle cx="788" cy="354" r="6" transform="rotate(180 788 354)" fill="#E5E5E5" />
    <circle cx="764" cy="378" r="6" transform="rotate(180 764 378)" fill="#E5E5E5" />
    <circle cx="764" cy="354" r="6" transform="rotate(180 764 354)" fill="#E5E5E5" />
    <circle cx="740" cy="378" r="6" transform="rotate(180 740 378)" fill="#E5E5E5" />
    <circle cx="740" cy="354" r="6" transform="rotate(180 740 354)" fill="#E5E5E5" />
    <circle cx="716" cy="378" r="6" transform="rotate(180 716 378)" fill="#E5E5E5" />
    <circle cx="716" cy="354" r="6" transform="rotate(180 716 354)" fill="#E5E5E5" />
    <circle cx="692" cy="378" r="6" transform="rotate(180 692 378)" fill="#E5E5E5" />
    <circle cx="692" cy="354" r="6" transform="rotate(180 692 354)" fill="#E5E5E5" />
    <circle cx="668" cy="378" r="6" transform="rotate(180 668 378)" fill="#E5E5E5" />
    <circle cx="668" cy="354" r="6" transform="rotate(180 668 354)" fill="#E5E5E5" />
    <circle cx="644" cy="378" r="6" transform="rotate(180 644 378)" fill="#E5E5E5" />
    <circle cx="644" cy="354" r="6" transform="rotate(180 644 354)" fill="#E5E5E5" />
    <circle cx="620" cy="378" r="6" transform="rotate(180 620 378)" fill="#E5E5E5" />
    <circle cx="620" cy="354" r="6" transform="rotate(180 620 354)" fill="#E5E5E5" />
    <circle cx="596" cy="378" r="6" transform="rotate(180 596 378)" fill="#E5E5E5" />
    <circle cx="596" cy="354" r="6" transform="rotate(180 596 354)" fill="#E5E5E5" />
    <circle cx="572" cy="378" r="6" transform="rotate(180 572 378)" fill="#E5E5E5" />
    <circle cx="572" cy="354" r="6" transform="rotate(180 572 354)" fill="#E5E5E5" />
    <circle cx="548" cy="378" r="6" transform="rotate(180 548 378)" fill="#E5E5E5" />
    <circle cx="548" cy="354" r="6" transform="rotate(180 548 354)" fill="#E5E5E5" />
    <circle cx="524" cy="378" r="6" transform="rotate(180 524 378)" fill="#E5E5E5" />
    <circle cx="524" cy="354" r="6" transform="rotate(180 524 354)" fill="#E5E5E5" />
    <circle cx="500" cy="378" r="6" transform="rotate(180 500 378)" fill="#E5E5E5" />
    <circle cx="500" cy="354" r="6" transform="rotate(180 500 354)" fill="#E5E5E5" />
    <g filter="url(#filter0_d)">
        <rect x="104" y="29" width="203" height="203" rx="32" fill="white" />
    </g>
    <path d="M146 117H190C191.657 117 193 115.657 193 114V72.7426C193 71.947 192.684 71.1839 192.121 70.6213L179.379 57.8787C178.816 57.3161 178.053 57 177.257 57H146C144.343 57 143 58.3431 143 60V114C143 115.657 144.343 117 146 117Z" fill="#E5E5E5" />
    <path d="M222 117H266C267.657 117 269 115.657 269 114V72.7426C269 71.947 268.684 71.1839 268.121 70.6213L255.379 57.8787C254.816 57.3161 254.053 57 253.257 57H222C220.343 57 219 58.3431 219 60V114C219 115.657 220.343 117 222 117Z" fill="#FF820F" />
    <path d="M146 203H190C191.657 203 193 201.657 193 200V158.743C193 157.947 192.684 157.184 192.121 156.621L179.379 143.879C178.816 143.316 178.053 143 177.257 143H146C144.343 143 143 144.343 143 146V200C143 201.657 144.343 203 146 203Z" fill="#2E3440" />
    <path d="M222 203H266C267.657 203 269 201.657 269 200V158.743C269 157.947 268.684 157.184 268.121 156.621L255.379 143.879C254.816 143.316 254.053 143 253.257 143H222C220.343 143 219 144.343 219 146V200C219 201.657 220.343 203 222 203Z" fill="#0042A9" />
    <g filter="url(#filter1_d)">
        <rect x="532" y="273" width="137" height="137" rx="32" fill="white" />
    </g>
    <rect x="562" y="294" width="19" height="95" rx="3" fill="#E5E5E5" />
    <rect x="591" y="356" width="19" height="33" rx="3" fill="#FF820F" />
    <rect x="620" y="329" width="19" height="60" rx="3" fill="#2E3440" />
    <g filter="url(#filter2_d)">
        <rect x="140" y="366" width="132" height="132" rx="32" fill="white" />
    </g>
    <path d="M252 432C252 441.098 249.302 449.992 244.248 457.556C239.193 465.121 232.009 471.017 223.603 474.498C215.198 477.98 205.949 478.891 197.026 477.116C188.103 475.341 179.906 470.96 173.473 464.527C167.04 458.094 162.659 449.897 160.884 440.974C159.109 432.051 160.02 422.802 163.502 414.397C166.983 405.991 172.879 398.807 180.444 393.752C188.008 388.698 196.902 386 206 386V432H252Z" fill="#2E3440" />
    <path d="M206 478C196.902 478 188.008 475.302 180.444 470.248C172.879 465.193 166.983 458.009 163.502 449.603C160.02 441.198 159.109 431.949 160.884 423.026C162.659 414.103 167.04 405.906 173.473 399.473C179.906 393.04 188.103 388.659 197.026 386.884C205.949 385.109 215.198 386.02 223.603 389.502C232.009 392.983 239.193 398.879 244.248 406.444C249.302 414.008 252 422.902 252 432L206 432L206 478Z" fill="#0042A9" />
    <path d="M252 432C252 422.902 249.302 414.008 244.248 406.444C239.193 398.879 232.009 392.983 223.603 389.502C215.198 386.02 205.949 385.109 197.026 386.884C188.103 388.659 179.906 393.04 173.473 399.473L206 432H252Z" fill="#FF820F" />
    <g filter="url(#filter3_d)">
        <rect x="602" y="47" width="134" height="134" rx="32" fill="white" />
    </g>
    <path d="M638.56 140.4L672 114L685.2 78.8" stroke="#E5E5E5" stroke-width="3.52" />
    <path d="M672 114L640.32 82.32M672 114L705.44 121.92M672 114L689.6 147.44" stroke="#0042A9" stroke-width="3.52" />
    <circle cx="672" cy="114" r="17.6" fill="#2E3440" />
    <circle cx="684.32" cy="80.56" r="10.56" fill="#E5E5E5" />
    <circle cx="638.56" cy="80.56" r="10.56" fill="#0042A9" />
    <circle cx="638.56" cy="140.4" r="10.56" fill="#E5E5E5" />
    <circle cx="689.6" cy="147.44" r="10.56" fill="#0042A9" />
    <circle cx="707.56" cy="121.56" r="10.56" fill="#0042A9" />
    <g filter="url(#filter4_d)">
        <rect x="221" y="117" width="341" height="341" rx="32" fill="white" />
    </g>
    <rect width="266.341" height="78" transform="translate(258 248)" fill="white" />
    <path d="M328.233 304H333.244V292.326H340.053C347.755 292.326 351.565 287.673 351.565 281.544C351.565 275.431 347.788 270.794 340.07 270.794H328.233V304ZM333.244 288.078V275.09H339.535C344.496 275.09 346.523 277.782 346.523 281.544C346.523 285.305 344.496 288.078 339.599 288.078H333.244ZM365.173 304.503C372.194 304.503 376.783 299.363 376.783 291.661C376.783 283.911 372.194 278.771 365.173 278.771C358.153 278.771 353.564 283.911 353.564 291.661C353.564 299.363 358.153 304.503 365.173 304.503ZM365.19 300.433C360.601 300.433 358.461 296.428 358.461 291.645C358.461 286.878 360.601 282.825 365.19 282.825C369.746 282.825 371.886 286.878 371.886 291.645C371.886 296.428 369.746 300.433 365.19 300.433ZM384.781 304H389.71L394.768 286.019H395.141L400.2 304H405.145L412.458 279.095H407.448L402.6 297.304H402.357L397.492 279.095H392.482L387.586 297.385H387.342L382.462 279.095H377.452L384.781 304ZM424.98 304.503C430.411 304.503 434.254 301.827 435.357 297.774L430.768 296.947C429.892 299.298 427.785 300.498 425.028 300.498C420.877 300.498 418.089 297.806 417.959 293.007H435.665V291.288C435.665 282.289 430.282 278.771 424.639 278.771C417.7 278.771 413.127 284.057 413.127 291.71C413.127 299.444 417.635 304.503 424.98 304.503ZM417.975 289.375C418.17 285.84 420.732 282.776 424.672 282.776C428.433 282.776 430.898 285.565 430.914 289.375H417.975ZM438.989 304H443.837V288.791C443.837 285.532 446.35 283.181 449.787 283.181C450.793 283.181 451.928 283.36 452.317 283.473V278.836C451.83 278.771 450.874 278.722 450.258 278.722C447.339 278.722 444.842 280.376 443.934 283.052H443.675V279.095H438.989V304ZM464.876 304H477.604C485.321 304 488.807 300.157 488.807 295.066C488.807 289.926 485.208 287.024 481.916 286.846V286.521C484.965 285.743 487.51 283.668 487.51 279.517C487.51 274.604 484.105 270.794 477.036 270.794H464.876V304ZM469.886 299.703V289.067H477.295C481.317 289.067 483.83 291.661 483.83 294.823C483.83 297.612 481.933 299.703 477.117 299.703H469.886ZM469.886 285.159V275.058H476.728C480.7 275.058 482.597 277.15 482.597 279.906C482.597 283.116 479.971 285.159 476.598 285.159H469.886ZM492.306 304H497.154V279.095H492.306V304ZM494.754 275.253C496.424 275.253 497.819 273.956 497.819 272.367C497.819 270.778 496.424 269.464 494.754 269.464C493.068 269.464 491.69 270.778 491.69 272.367C491.69 273.956 493.068 275.253 494.754 275.253Z" fill="#FF820F" />
    <path d="M303.635 267.024H284.079C282.284 267.024 280.829 268.479 280.829 270.274V280.896C280.829 282.691 282.284 284.146 284.079 284.146H304.216C306.095 284.146 307.92 283.513 309.395 282.348C313.393 279.192 313.662 273.224 309.964 269.721L309.645 269.419C308.022 267.881 305.871 267.024 303.635 267.024Z" fill="#F19D1E" />
    <path d="M303.456 286.049H299.299C297.504 286.049 296.049 287.504 296.049 289.299V299.921C296.049 301.716 297.504 303.171 299.299 303.171H303.456C305.432 303.171 307.348 302.487 308.877 301.236C313.064 297.81 313.064 291.409 308.877 287.984C307.348 286.732 305.432 286.049 303.456 286.049Z" fill="#D65F00" />
    <path d="M290.896 286.049H284.079C282.284 286.049 280.829 287.504 280.829 289.299V299.921C280.829 301.716 282.284 303.171 284.079 303.171H290.896C292.691 303.171 294.146 301.716 294.146 299.921V289.299C294.146 287.504 292.691 286.049 290.896 286.049Z" fill="#FF820F" />
    <defs>
        <filter id="filter0_d" x="71" y="0" width="269" height="269" filterUnits="userSpaceOnUse" color-interpolation-filters="sRGB">
            <feFlood flood-opacity="0" result="BackgroundImageFix" />
            <feColorMatrix in="SourceAlpha" type="matrix" values="0 0 0 0 0 0 0 0 0 0 0 0 0 0 0 0 0 0 127 0" />
            <feOffset dy="4" />
            <feGaussianBlur stdDeviation="16.5" />
            <feColorMatrix type="matrix" values="0 0 0 0 0.441667 0 0 0 0 0.274708 0 0 0 0 0.104896 0 0 0 0.2 0" />
            <feBlend mode="normal" in2="BackgroundImageFix" result="effect1_dropShadow" />
            <feBlend mode="normal" in="SourceGraphic" in2="effect1_dropShadow" result="shape" />
        </filter>
        <filter id="filter1_d" x="499" y="244" width="203" height="203" filterUnits="userSpaceOnUse" color-interpolation-filters="sRGB">
            <feFlood flood-opacity="0" result="BackgroundImageFix" />
            <feColorMatrix in="SourceAlpha" type="matrix" values="0 0 0 0 0 0 0 0 0 0 0 0 0 0 0 0 0 0 127 0" />
            <feOffset dy="4" />
            <feGaussianBlur stdDeviation="16.5" />
            <feColorMatrix type="matrix" values="0 0 0 0 0.441667 0 0 0 0 0.274708 0 0 0 0 0.104896 0 0 0 0.2 0" />
            <feBlend mode="normal" in2="BackgroundImageFix" result="effect1_dropShadow" />
            <feBlend mode="normal" in="SourceGraphic" in2="effect1_dropShadow" result="shape" />
        </filter>
        <filter id="filter2_d" x="107" y="337" width="198" height="198" filterUnits="userSpaceOnUse" color-interpolation-filters="sRGB">
            <feFlood flood-opacity="0" result="BackgroundImageFix" />
            <feColorMatrix in="SourceAlpha" type="matrix" values="0 0 0 0 0 0 0 0 0 0 0 0 0 0 0 0 0 0 127 0" />
            <feOffset dy="4" />
            <feGaussianBlur stdDeviation="16.5" />
            <feColorMatrix type="matrix" values="0 0 0 0 0.441667 0 0 0 0 0.274708 0 0 0 0 0.104896 0 0 0 0.2 0" />
            <feBlend mode="normal" in2="BackgroundImageFix" result="effect1_dropShadow" />
            <feBlend mode="normal" in="SourceGraphic" in2="effect1_dropShadow" result="shape" />
        </filter>
        <filter id="filter3_d" x="569" y="18" width="200" height="200" filterUnits="userSpaceOnUse" color-interpolation-filters="sRGB">
            <feFlood flood-opacity="0" result="BackgroundImageFix" />
            <feColorMatrix in="SourceAlpha" type="matrix" values="0 0 0 0 0 0 0 0 0 0 0 0 0 0 0 0 0 0 127 0" />
            <feOffset dy="4" />
            <feGaussianBlur stdDeviation="16.5" />
            <feColorMatrix type="matrix" values="0 0 0 0 0.441667 0 0 0 0 0.274708 0 0 0 0 0.104896 0 0 0 0.2 0" />
            <feBlend mode="normal" in2="BackgroundImageFix" result="effect1_dropShadow" />
            <feBlend mode="normal" in="SourceGraphic" in2="effect1_dropShadow" result="shape" />
        </filter>
        <filter id="filter4_d" x="188" y="88" width="407" height="407" filterUnits="userSpaceOnUse" color-interpolation-filters="sRGB">
            <feFlood flood-opacity="0" result="BackgroundImageFix" />
            <feColorMatrix in="SourceAlpha" type="matrix" values="0 0 0 0 0 0 0 0 0 0 0 0 0 0 0 0 0 0 127 0" />
            <feOffset dy="4" />
            <feGaussianBlur stdDeviation="16.5" />
            <feColorMatrix type="matrix" values="0 0 0 0 0.441667 0 0 0 0 0.274708 0 0 0 0 0.104896 0 0 0 0.2 0" />
            <feBlend mode="normal" in2="BackgroundImageFix" result="effect1_dropShadow" />
            <feBlend mode="normal" in="SourceGraphic" in2="effect1_dropShadow" result="shape" />
        </filter>
    </defs>
</svg>
