<svg width="218" height="35" viewBox="0 0 218 35" fill="none" xmlns="http://www.w3.org/2000/svg">
    <path d="M0.831726 3.69396C0.831726 1.76926 2.392 0.208984 4.3167 0.208984H213.683C215.608 0.208984 217.168 1.76926 217.168 3.69396V31.3057C217.168 33.2304 215.608 34.7907 213.683 34.7907H4.3167C2.392 34.7907 0.831726 33.2304 0.831726 31.3057V3.69396Z" fill="#111111" />
    <path d="M13.0884 12.7479V22.9614H14.2454V15.2015H14.3451L17.5368 22.9614H18.6539L21.8456 15.2015H21.9454V22.9614H23.1024V12.7479H21.6262L18.1552 21.2259H18.0355L14.5645 12.7479H13.0884ZM27.6768 23.141C29.0133 23.141 29.7115 22.4228 29.9509 21.9241H30.0107V22.9614H31.1877V17.9145C31.1877 15.4808 29.3325 15.2015 28.355 15.2015C27.198 15.2015 25.8814 15.6005 25.283 16.9969L26.4001 17.3959C26.6594 16.8373 27.2728 16.2389 28.3949 16.2389C29.4771 16.2389 30.0107 16.8124 30.0107 17.7948V17.8347C30.0107 18.4032 29.4322 18.3534 28.0358 18.5329C26.6145 18.7174 25.0636 19.0316 25.0636 20.7871C25.0636 22.2832 26.2206 23.141 27.6768 23.141ZM27.8563 22.0837C26.9187 22.0837 26.2405 21.6648 26.2405 20.8469C26.2405 19.9492 27.0584 19.67 27.976 19.5503C28.4747 19.4904 29.8112 19.3508 30.0107 19.1114V20.1886C30.0107 21.1461 29.2527 22.0837 27.8563 22.0837ZM36.2284 23.121C37.7045 23.121 38.2032 22.2034 38.4626 21.7845H38.6022V22.9614H39.7393V12.7479H38.5623V16.5181H38.4626C38.2032 16.1192 37.7444 15.2015 36.2483 15.2015C34.3133 15.2015 32.9768 16.7376 32.9768 19.1513C32.9768 21.585 34.3133 23.121 36.2284 23.121ZM36.3879 22.0638C34.9118 22.0638 34.1537 20.7671 34.1537 19.1314C34.1537 17.5155 34.8918 16.2588 36.3879 16.2588C37.8242 16.2588 38.5823 17.4158 38.5823 19.1314C38.5823 20.8669 37.8043 22.0638 36.3879 22.0638ZM45.2699 23.121C46.8259 23.121 47.9629 22.343 48.322 21.186L47.1849 20.8669C46.8857 21.6648 46.1925 22.0638 45.2699 22.0638C43.8885 22.0638 42.936 21.1711 42.8811 19.5303H48.4417V19.0316C48.4417 16.179 46.7461 15.2015 45.1502 15.2015C43.0756 15.2015 41.6992 16.8373 41.6992 19.1912C41.6992 21.5451 43.0557 23.121 45.2699 23.121ZM42.8811 18.513C42.9609 17.3211 43.8037 16.2588 45.1502 16.2588C46.4269 16.2588 47.2448 17.2163 47.2448 18.513H42.8811ZM54.3414 22.9614H55.4784V21.7845H55.6181C55.8774 22.2034 56.3761 23.121 57.8523 23.121C59.7673 23.121 61.1039 21.585 61.1039 19.1513C61.1039 16.7376 59.7673 15.2015 57.8323 15.2015C56.3362 15.2015 55.8774 16.1192 55.6181 16.5181H55.5183V12.7479H54.3414V22.9614ZM55.4984 19.1314C55.4984 17.4158 56.2564 16.2588 57.6927 16.2588C59.1888 16.2588 59.9269 17.5155 59.9269 19.1314C59.9269 20.7671 59.1689 22.0638 57.6927 22.0638C56.2764 22.0638 55.4984 20.8669 55.4984 19.1314ZM63.3879 25.834C64.4502 25.834 65.1982 25.2704 65.6421 24.0785L68.9036 15.3212L67.617 15.3013L65.5025 21.4055H65.4227L63.3081 15.3013H62.0315L64.8641 23.0013L64.6447 23.5998C64.2158 24.7667 63.6872 24.8765 62.8294 24.657L62.5302 25.6943C62.6498 25.7542 62.989 25.834 63.3879 25.834Z" fill="white" />
    <path fill-rule="evenodd" clip-rule="evenodd" d="M185.751 17.9865C185.751 22.643 183.652 26.4179 177.472 26.4179C171.291 26.4179 169.192 22.643 169.192 17.9865C169.192 13.33 170.725 9.55518 177.472 9.55518C184.219 9.55518 185.751 13.33 185.751 17.9865ZM182.496 17.9893C182.496 21.1713 181.213 23.7509 177.437 23.7509C173.66 23.7509 172.378 21.1713 172.378 17.9893C172.378 14.8073 173.314 12.2278 177.437 12.2278C181.559 12.2278 182.496 14.8073 182.496 17.9893ZM78.0397 26.2588H81.2034L86.6725 12.8577L89.3868 19.0577H85.9295L84.8656 21.7422H90.1952L92.2758 26.2504H95.5987L88.3945 9.66906H85.0778L78.0397 26.2588ZM190.896 26.2496V9.66906H194.017L203.231 21.5235V9.66906H206.166V26.2496H203.08L193.855 14.1805V26.2496H190.896ZM155.483 9.66906V26.2496H165.221L166.265 23.5563H158.575V9.66906H155.483ZM117.259 9.66906H120.938L126.074 22.3707L131.194 9.66906H134.819L127.56 26.2496H124.229L117.259 9.66906ZM102.979 26.2523H99.8986V9.66906H102.979V26.2523ZM103.905 18.5147V16.5012L110.181 9.66906H113.945L106.641 17.4061L114.92 26.2496H110.671L103.905 18.5147Z" fill="white" />
    <path fill-rule="evenodd" clip-rule="evenodd" d="M139.377 10.8237C139.377 10.1234 139.945 9.55566 140.645 9.55566H149.131C149.831 9.55566 150.399 10.1234 150.399 10.8237C150.399 11.5241 149.831 12.0918 149.131 12.0918H140.645C139.945 12.0918 139.377 11.5241 139.377 10.8237ZM136.345 17.9641C136.345 17.2638 136.913 16.696 137.613 16.696H149.131C149.831 16.696 150.399 17.2638 150.399 17.9641C150.399 18.6644 149.831 19.2322 149.131 19.2322H137.613C136.913 19.2322 136.345 18.6644 136.345 17.9641ZM134.076 23.882C133.375 23.882 132.807 24.4497 132.807 25.15C132.807 25.8504 133.375 26.4181 134.076 26.4181H149.131C149.831 26.4181 150.399 25.8504 150.399 25.15C150.399 24.4497 149.831 23.882 149.131 23.882H134.076Z" fill="#E96719" />
</svg>
