<svg width="218" height="35" viewBox="0 0 218 35" fill="none" xmlns="http://www.w3.org/2000/svg">
    <path d="M0.831726 3.69414C0.831726 1.76944 2.392 0.20916 4.3167 0.20916H213.683C215.608 0.20916 217.168 1.76944 217.168 3.69414V31.3059C217.168 33.2306 215.608 34.7908 213.683 34.7908H4.3167C2.392 34.7908 0.831726 33.2306 0.831726 31.3059V3.69414Z" fill="#F9F9F9" />
    <path d="M13.0884 12.748V22.9615H14.2454V15.2016H14.3451L17.5368 22.9615H18.6539L21.8456 15.2016H21.9454V22.9615H23.1024V12.748H21.6262L18.1552 21.226H18.0355L14.5645 12.748H13.0884ZM27.6768 23.141C29.0133 23.141 29.7115 22.4229 29.9509 21.9242H30.0107V22.9615H31.1877V17.9146C31.1877 15.4809 29.3325 15.2016 28.355 15.2016C27.198 15.2016 25.8814 15.6006 25.283 16.997L26.4001 17.3959C26.6594 16.8374 27.2728 16.2389 28.3949 16.2389C29.4771 16.2389 30.0107 16.8124 30.0107 17.7949V17.8348C30.0107 18.4033 29.4322 18.3534 28.0358 18.533C26.6145 18.7175 25.0636 19.0317 25.0636 20.7871C25.0636 22.2832 26.2206 23.141 27.6768 23.141ZM27.8563 22.0838C26.9187 22.0838 26.2405 21.6648 26.2405 20.847C26.2405 19.9493 27.0584 19.67 27.976 19.5503C28.4747 19.4905 29.8112 19.3508 30.0107 19.1115V20.1887C30.0107 21.1462 29.2527 22.0838 27.8563 22.0838ZM36.2284 23.1211C37.7045 23.1211 38.2032 22.2035 38.4626 21.7845H38.6022V22.9615H39.7393V12.748H38.5623V16.5182H38.4626C38.2032 16.1192 37.7444 15.2016 36.2483 15.2016C34.3133 15.2016 32.9768 16.7376 32.9768 19.1514C32.9768 21.5851 34.3133 23.1211 36.2284 23.1211ZM36.3879 22.0638C34.9118 22.0638 34.1537 20.7672 34.1537 19.1314C34.1537 17.5156 34.8918 16.2589 36.3879 16.2589C37.8242 16.2589 38.5823 17.4159 38.5823 19.1314C38.5823 20.8669 37.8043 22.0638 36.3879 22.0638ZM45.2699 23.1211C46.8259 23.1211 47.9629 22.3431 48.322 21.1861L47.1849 20.8669C46.8857 21.6648 46.1925 22.0638 45.2699 22.0638C43.8885 22.0638 42.936 21.1711 42.8811 19.5304H48.4417V19.0317C48.4417 16.1791 46.7461 15.2016 45.1502 15.2016C43.0756 15.2016 41.6992 16.8374 41.6992 19.1913C41.6992 21.5452 43.0557 23.1211 45.2699 23.1211ZM42.8811 18.513C42.9609 17.3211 43.8037 16.2589 45.1502 16.2589C46.4269 16.2589 47.2448 17.2164 47.2448 18.513H42.8811ZM54.3414 22.9615H55.4784V21.7845H55.6181C55.8774 22.2035 56.3761 23.1211 57.8523 23.1211C59.7673 23.1211 61.1039 21.5851 61.1039 19.1514C61.1039 16.7376 59.7673 15.2016 57.8323 15.2016C56.3362 15.2016 55.8774 16.1192 55.6181 16.5182H55.5183V12.748H54.3414V22.9615ZM55.4984 19.1314C55.4984 17.4159 56.2564 16.2589 57.6927 16.2589C59.1888 16.2589 59.9269 17.5156 59.9269 19.1314C59.9269 20.7672 59.1689 22.0638 57.6927 22.0638C56.2764 22.0638 55.4984 20.8669 55.4984 19.1314ZM63.3879 25.834C64.4502 25.834 65.1982 25.2705 65.6421 24.0786L68.9036 15.3213L67.617 15.3013L65.5025 21.4055H65.4227L63.3081 15.3013H62.0315L64.8641 23.0014L64.6447 23.5998C64.2158 24.7668 63.6872 24.8765 62.8294 24.6571L62.5302 25.6944C62.6498 25.7542 62.989 25.834 63.3879 25.834Z" fill="#111211" />
    <path fill-rule="evenodd" clip-rule="evenodd" d="M185.751 17.9871C185.751 22.6436 183.652 26.4184 177.472 26.4184C171.291 26.4184 169.192 22.6436 169.192 17.9871C169.192 13.3306 170.725 9.55573 177.472 9.55573C184.219 9.55573 185.751 13.3306 185.751 17.9871ZM182.496 17.99C182.496 21.172 181.213 23.7516 177.437 23.7516C173.66 23.7516 172.378 21.172 172.378 17.99C172.378 14.808 173.314 12.2285 177.437 12.2285C181.559 12.2285 182.496 14.808 182.496 17.99ZM78.0398 26.2593H81.2035L86.6726 12.8582L89.3869 19.0582H85.9295L84.8657 21.7427H90.1953L92.2759 26.2509H95.5988L88.3946 9.66955H85.0778L78.0398 26.2593ZM190.896 26.25V9.66955H194.017L203.231 21.524V9.66955H206.166V26.25H203.081L193.855 14.181V26.25H190.896ZM155.483 9.66955V26.25H165.221L166.265 23.5568H158.575V9.66955H155.483ZM117.259 9.66955H120.938L126.074 22.3712L131.194 9.66955H134.819L127.56 26.25H124.23L117.259 9.66955ZM102.979 26.2528H99.8987V9.66955H102.979V26.2528ZM103.905 18.5152V16.5017L110.181 9.66955H113.945L106.641 17.4066L114.92 26.25H110.671L103.905 18.5152Z" fill="#111211" />
    <path fill-rule="evenodd" clip-rule="evenodd" d="M139.377 10.8241C139.377 10.1237 139.945 9.556 140.645 9.556H149.131C149.831 9.556 150.399 10.1237 150.399 10.8241C150.399 11.5244 149.831 12.0921 149.131 12.0921H140.645C139.945 12.0921 139.377 11.5244 139.377 10.8241ZM136.345 17.9644C136.345 17.2641 136.913 16.6964 137.613 16.6964H149.131C149.831 16.6964 150.399 17.2641 150.399 17.9644C150.399 18.6648 149.831 19.2325 149.131 19.2325H137.613C136.913 19.2325 136.345 18.6648 136.345 17.9644ZM134.076 23.8823C133.375 23.8823 132.807 24.45 132.807 25.1504C132.807 25.8507 133.375 26.4184 134.076 26.4184H149.131C149.831 26.4184 150.399 25.8507 150.399 25.1504C150.399 24.45 149.831 23.8823 149.131 23.8823H134.076Z" fill="#E96719" />
</svg>
