<svg width="48" height="48" viewBox="0 0 48 48" fill="none" xmlns="http://www.w3.org/2000/svg">
    <path d="M42.4199 31.78C41.1475 34.7889 39.1575 37.4404 36.6236 39.5026C34.0898 41.5647 31.0894 42.9748 27.8848 43.6095C24.6801 44.2442 21.3687 44.0843 18.2402 43.1436C15.1116 42.2029 12.2611 40.5101 9.93793 38.2133C7.61472 35.9165 5.88952 33.0855 4.91316 29.9679C3.9368 26.8503 3.73901 23.5409 4.33709 20.3292C4.93516 17.1175 6.31088 14.1012 8.34398 11.544C10.3771 8.98684 13.0057 6.96661 15.9999 5.65997" stroke="#0042A9" stroke-width="5" stroke-linecap="round" stroke-linejoin="round" />
    <path d="M44 24C44 21.3736 43.4827 18.7728 42.4776 16.3463C41.4725 13.9198 39.9993 11.715 38.1421 9.85786C36.285 8.00069 34.0802 6.5275 31.6537 5.52241C29.2272 4.51732 26.6264 4 24 4V24H44Z" stroke="#0042A9" stroke-width="5" stroke-linecap="round" stroke-linejoin="round" />
</svg>
