<svg viewBox="0 0 26 26" fill="none" xmlns="http://www.w3.org/2000/svg">
    <rect width="26" height="26" rx="3" fill="#2E3440" />
    <path d="M7.56201 15.4304C7.56201 16.5393 6.6658 17.4355 5.55694 17.4355C4.44808 17.4355 3.55188 16.5393 3.55188 15.4304C3.55188 14.3216 4.44808 13.4254 5.55694 13.4254H7.56201V15.4304ZM8.56454 15.4304C8.56454 14.3216 9.46074 13.4254 10.5696 13.4254C11.6785 13.4254 12.5747 14.3216 12.5747 15.4304V20.4431C12.5747 21.5519 11.6785 22.4481 10.5696 22.4481C9.46074 22.4481 8.56454 21.5519 8.56454 20.4431V15.4304Z" fill="#E01E5A" />
    <path d="M10.5696 7.37976C9.46073 7.37976 8.56453 6.48355 8.56453 5.37469C8.56453 4.26583 9.46073 3.36963 10.5696 3.36963C11.6785 3.36963 12.5747 4.26583 12.5747 5.37469V7.37976H10.5696ZM10.5696 8.39748C11.6785 8.39748 12.5747 9.29368 12.5747 10.4025C12.5747 11.5114 11.6785 12.4076 10.5696 12.4076H5.54175C4.43288 12.4076 3.53668 11.5114 3.53668 10.4025C3.53668 9.29368 4.43288 8.39748 5.54175 8.39748H10.5696Z" fill="#36C5F0" />
    <path d="M18.605 10.4025C18.605 9.29368 19.5012 8.39748 20.6101 8.39748C21.719 8.39748 22.6152 9.29368 22.6152 10.4025C22.6152 11.5114 21.719 12.4076 20.6101 12.4076H18.605V10.4025ZM17.6025 10.4025C17.6025 11.5114 16.7063 12.4076 15.5974 12.4076C14.4886 12.4076 13.5924 11.5114 13.5924 10.4025V5.37469C13.5924 4.26583 14.4886 3.36963 15.5974 3.36963C16.7063 3.36963 17.6025 4.26583 17.6025 5.37469V10.4025Z" fill="#2EB67D" />
    <path d="M15.5974 18.438C16.7063 18.438 17.6025 19.3342 17.6025 20.4431C17.6025 21.5519 16.7063 22.4481 15.5974 22.4481C14.4886 22.4481 13.5924 21.5519 13.5924 20.4431V18.438H15.5974ZM15.5974 17.4355C14.4886 17.4355 13.5924 16.5393 13.5924 15.4304C13.5924 14.3216 14.4886 13.4254 15.5974 13.4254H20.6253C21.7341 13.4254 22.6304 14.3216 22.6304 15.4304C22.6304 16.5393 21.7341 17.4355 20.6253 17.4355H15.5974Z" fill="#ECB22E" />
</svg>
