<svg width="155" height="213" viewBox="0 0 155 213" fill="none" xmlns="http://www.w3.org/2000/svg">
    <path d="M76.4773 212.864C123.114 212.864 154.818 182.489 154.716 140.148C154.818 100.057 126.795 71.2159 89.0568 71.2159C70.6477 71.2159 54.7955 78.8864 47.4318 89.2159H46.2045L51.625 36.75H143.159V0.545448H15.1136L5.19318 111L44.5682 118.057C51.0114 109.364 63.4886 103.943 75.8636 103.943C96.9318 104.045 112.068 119.284 112.068 141.273C112.068 163.057 97.2386 178.091 76.4773 178.091C58.8864 178.091 44.6705 167.045 43.6477 150.784H0.693182C1.51136 186.989 33.1136 212.864 76.4773 212.864Z" fill="#EEEEEE" />
</svg>
