<svg width="161" height="216" viewBox="0 0 161 216" fill="none" xmlns="http://www.w3.org/2000/svg">
    <path d="M80.3977 215.864C127.443 215.864 161.091 189.989 160.989 154.193C161.091 128.114 144.523 109.5 113.739 105.614V103.977C137.159 99.7841 153.318 83.2159 153.216 59.6932C153.318 26.6591 124.375 0.68181 81.0114 0.68181C38.0568 0.68181 5.73864 25.8409 5.125 62.0454H47.5682C48.0795 46.0909 62.7046 35.7614 80.8068 35.7614C98.7046 35.7614 110.67 46.6023 110.568 62.3523C110.67 78.8182 96.6591 89.9659 76.5114 89.9659H56.9773V122.489H76.5114C100.239 122.489 115.068 134.352 114.966 151.227C115.068 167.898 100.75 179.352 80.5 179.352C60.9659 179.352 46.3409 169.125 45.5227 153.784H0.931819C1.64773 190.398 34.375 215.864 80.3977 215.864Z" fill="#EEEEEE" />
</svg>
