<svg width="30" height="23" viewBox="0 0 30 23" fill="none" xmlns="http://www.w3.org/2000/svg">
    <path d="M29.3379 4.28493C29.1659 3.649 28.8302 3.06924 28.3643 2.6034C27.8985 2.13755 27.3187 1.80188 26.6828 1.6298C24.3548 0.994873 14.9848 0.994873 14.9848 0.994873C14.9848 0.994873 5.61489 1.01411 3.28684 1.64904C2.65091 1.82112 2.07115 2.15679 1.6053 2.62264C1.13946 3.08848 0.803783 3.66824 0.631702 4.30417C-0.0724856 8.4408 -0.345695 14.7439 0.650943 18.715C0.823023 19.3509 1.1587 19.9307 1.62454 20.3965C2.09039 20.8624 2.67015 21.1981 3.30608 21.3701C5.63413 22.0051 15.0041 22.0051 15.0041 22.0051C15.0041 22.0051 24.374 22.0051 26.7021 21.3701C27.338 21.1981 27.9177 20.8624 28.3836 20.3965C28.8494 19.9307 29.1851 19.3509 29.3572 18.715C30.0999 14.5726 30.3288 8.27341 29.3379 4.28493Z" fill="#FF0000" />
    <path d="M12.0026 16.0022L19.7756 11.5L12.0026 6.9978V16.0022Z" fill="white" />
</svg>
