<?xml version="1.0" standalone="no"?>
<!DOCTYPE svg PUBLIC "-//W3C//DTD SVG 20010904//EN"
 "http://www.w3.org/TR/2001/REC-SVG-20010904/DTD/svg10.dtd">
<svg version="1.0" xmlns="http://www.w3.org/2000/svg"
 width="640.000000pt" height="640.000000pt" viewBox="0 0 640.000000 640.000000"
 preserveAspectRatio="xMidYMid meet">
<metadata>
Created by potrace 1.11, written by Peter Selinger 2001-2013
</metadata>
<g transform="translate(0.000000,640.000000) scale(0.100000,-0.100000)"
fill="#000000" stroke="none">
<path d="M939 6396 c-3 -3 -19 -8 -38 -11 -45 -8 -152 -57 -198 -92 -88 -65
-168 -178 -200 -281 -12 -41 -25 -138 -24 -182 1 -37 1 -110 0 -117 -1 -4 0
-12 1 -18 4 -23 0 -157 -5 -166 -4 -5 -2 -9 3 -9 5 0 6 -17 2 -41 -4 -22 -4
-56 0 -75 4 -19 4 -36 0 -39 -4 -3 -4 -21 0 -40 4 -20 4 -38 -1 -41 -5 -3 -7
-10 -3 -15 3 -6 5 -58 4 -117 -1 -59 -2 -111 -1 -117 0 -12 1 -121 0 -150 0
-25 0 -156 0 -170 0 -5 0 -39 0 -75 1 -36 1 -83 2 -105 1 -22 1 -46 0 -52 -3
-30 -3 -144 -1 -188 1 -16 2 -36 1 -42 -2 -29 -2 -40 -1 -93 1 -30 1 -59 0
-65 -1 -5 -2 -12 -2 -15 11 -142 25 -192 75 -282 44 -78 122 -158 196 -201 31
-17 58 -32 61 -33 3 0 18 -6 33 -12 16 -7 36 -12 46 -12 10 0 21 -3 25 -7 4
-4 39 -8 79 -10 40 -1 73 -2 75 -3 3 -2 110 -2 120 0 25 4 234 0 242 -5 5 -3
10 -3 10 2 0 4 24 7 52 5 29 -2 64 -2 78 -2 14 1 30 2 35 2 6 0 55 -1 110 -2
55 -1 105 -1 110 0 32 4 237 0 245 -5 5 -3 10 -3 10 2 0 4 24 7 52 5 29 -2 64
-2 78 -2 30 2 19 2 148 -1 56 -1 104 0 106 2 3 2 39 2 80 -1 42 -3 76 -3 76 0
0 6 130 2 147 -5 7 -2 13 -1 13 3 0 4 46 6 102 5 189 -4 238 -4 247 2 6 3 12
1 16 -5 4 -6 10 -8 14 -5 7 4 63 6 131 5 8 -1 39 1 68 2 28 2 52 1 52 -2 0 -3
38 -5 85 -5 47 0 85 2 85 5 0 6 130 2 147 -5 7 -2 13 -1 13 3 0 8 188 8 196 0
2 -3 19 -2 37 1 17 4 52 4 77 1 25 -3 61 -3 80 0 19 3 49 3 67 -1 18 -4 34 -4
37 -2 8 9 176 8 176 0 0 -5 3 -6 8 -4 4 3 46 8 94 12 49 3 98 8 110 11 13 2
37 7 53 10 58 10 114 24 162 39 49 16 64 22 123 48 19 9 38 13 42 11 4 -3 8
-1 8 4 0 5 15 16 33 23 42 17 146 80 216 132 57 42 271 252 271 266 0 4 8 17
18 29 100 118 229 414 244 560 1 12 5 22 8 22 13 0 20 342 8 430 -13 99 -58
270 -87 335 -5 11 -21 47 -36 80 -15 33 -34 71 -43 85 -9 14 -17 27 -17 30 -3
13 -41 70 -47 70 -5 0 -8 5 -8 11 0 28 -187 231 -305 330 -72 61 -124 99 -134
99 -6 0 -11 4 -11 9 0 5 -10 13 -22 17 -13 4 -25 10 -28 14 -12 16 -209 109
-275 129 -22 7 -47 15 -55 18 -8 3 -22 7 -30 9 -8 2 -33 8 -55 14 -138 37
-170 38 -1966 39 -960 1 -1748 -1 -1750 -3z"/>
<path d="M957 3203 c-4 -6 -27 -14 -52 -17 -57 -9 -189 -75 -235 -118 -47 -44
-110 -122 -110 -137 0 -6 -3 -11 -8 -11 -7 0 -44 -90 -56 -135 -16 -61 -23
-196 -11 -216 4 -5 2 -9 -3 -9 -6 0 -7 -14 -2 -35 4 -19 4 -37 0 -40 -4 -3 -4
-21 0 -40 4 -20 4 -38 -1 -41 -5 -3 -7 -10 -4 -15 4 -5 6 -53 5 -107 -1 -98
-1 -114 0 -154 0 -13 -1 -49 -2 -81 -2 -31 -1 -57 2 -57 3 0 3 -30 0 -66 -3
-36 -4 -67 -1 -70 6 -6 3 -153 -4 -165 -4 -5 -2 -9 3 -9 5 0 6 -17 2 -41 -4
-22 -4 -56 0 -75 4 -19 4 -36 0 -39 -4 -3 -4 -21 0 -40 4 -20 4 -38 -1 -41 -5
-3 -7 -10 -3 -15 3 -6 5 -58 4 -117 -1 -59 -2 -111 -1 -117 0 -13 1 -126 0
-145 0 -8 0 -40 0 -70 0 -30 0 -62 0 -70 -3 -46 13 -168 27 -208 76 -226 289
-382 517 -378 37 0 67 -3 67 -7 0 -5 4 -6 10 -2 8 5 27 6 110 4 8 0 59 1 112
1 53 1 102 -1 107 -5 6 -3 11 -3 11 2 0 4 24 7 52 5 29 -2 64 -2 78 -2 30 2
19 2 148 -1 56 -1 104 0 106 2 3 2 39 2 80 -1 42 -3 76 -3 76 0 0 3 26 4 57 2
77 -4 68 -4 158 1 44 3 94 8 110 12 74 18 195 86 248 139 37 37 87 103 87 115
0 6 5 11 10 11 6 0 10 6 10 13 0 6 7 25 15 40 25 48 50 171 47 227 -1 8 -1 47
-1 85 0 39 0 77 0 85 -1 16 -1 118 0 135 0 6 -1 43 -2 82 -1 40 0 75 3 79 4 3
2 18 -2 34 -4 16 -6 31 -3 34 5 5 5 284 0 336 -2 14 0 40 4 58 4 17 3 34 -1
37 -4 3 -4 21 0 40 4 19 4 51 0 70 -4 19 -4 37 0 40 5 3 5 18 1 33 -5 15 -5
36 -1 47 4 11 5 26 3 32 -8 20 -9 193 -2 193 4 0 3 16 -1 34 -4 19 -5 37 -3
40 4 4 7 227 3 239 0 1 -2 36 -5 77 -2 41 -11 97 -19 124 -41 128 -139 249
-254 313 -80 45 -137 62 -232 69 -41 4 -78 8 -82 10 -4 2 -9 0 -12 -4 -3 -5
-26 -6 -51 -2 -25 4 -48 3 -51 -2 -3 -4 -9 -6 -13 -3 -8 4 -68 6 -176 5 -33
-1 -64 -1 -70 0 -28 4 -218 -1 -225 -5 -5 -3 -11 -2 -14 3 -2 4 -32 5 -65 2
-34 -3 -61 -2 -61 3 0 4 -4 6 -9 3 -5 -4 -67 -6 -138 -5 -70 0 -137 0 -148 -1
-106 -4 -125 -4 -128 5 -2 5 -6 4 -10 -2z"/>
<path d="M3578 3205 c-2 -3 -24 -7 -49 -9 -58 -7 -76 -11 -129 -31 -25 -9 -53
-19 -62 -22 -10 -3 -18 -9 -18 -14 0 -5 -5 -9 -11 -9 -14 0 -93 -63 -132 -105
-71 -77 -150 -274 -134 -335 3 -11 1 -23 -4 -26 -5 -3 -7 -10 -4 -15 4 -5 6
-30 5 -56 0 -27 -1 -57 -1 -68 2 -158 1 -197 -4 -205 -3 -6 -2 -10 3 -10 6 0
7 -14 3 -32 -4 -18 -4 -49 -1 -68 3 -19 3 -53 0 -75 -3 -22 -3 -60 0 -85 3
-25 3 -79 0 -121 -3 -42 -3 -89 0 -105 3 -16 3 -46 -1 -67 -3 -20 -4 -39 0
-41 3 -2 4 -44 1 -94 -3 -49 -3 -102 0 -118 3 -16 3 -46 -1 -66 -3 -21 -4 -39
-2 -42 6 -6 9 -196 3 -196 -4 0 -4 -42 1 -175 1 -5 0 -35 -1 -65 -1 -84 6
-181 19 -225 26 -96 86 -193 166 -267 44 -41 188 -118 221 -118 11 0 24 -3 28
-7 4 -4 39 -8 79 -10 40 -1 73 -2 75 -3 3 -2 111 -2 115 0 8 4 189 2 193 -3 3
-2 20 -1 39 3 19 4 36 6 38 3 3 -2 42 -4 88 -3 80 1 93 1 122 -1 6 0 64 2 127
5 152 7 289 33 423 82 79 28 220 95 225 106 2 4 10 8 17 8 8 0 20 6 27 13 7 7
31 24 53 37 22 13 42 26 45 29 3 4 28 24 55 46 90 72 189 178 273 290 90 122
212 406 228 530 1 11 5 31 8 45 15 64 29 333 18 353 -2 5 -6 32 -8 60 -6 105
-61 321 -98 387 -8 14 -15 30 -16 35 -5 20 -25 61 -43 88 -10 15 -16 27 -12
27 7 0 -86 139 -134 200 -39 50 -220 230 -231 230 -3 0 -22 14 -40 30 -18 17
-39 30 -46 30 -6 0 -18 7 -25 16 -7 9 -22 20 -34 25 -11 5 -49 25 -85 45 -36
20 -69 37 -75 38 -5 1 -19 7 -30 13 -20 11 -140 50 -220 72 -96 26 -245 42
-375 40 -41 0 -88 0 -105 1 -16 1 -37 2 -45 1 -47 -3 -144 1 -152 5 -4 3 -8 2
-8 -3 0 -4 -49 -8 -110 -8 -60 0 -110 3 -110 6 0 3 -22 3 -49 -1 -27 -3 -58
-3 -69 1 -11 4 -22 6 -24 4z"/>
</g>
</svg>
